<svg width="492" height="492" viewBox="0 0 492 492" fill="none" xmlns="http://www.w3.org/2000/svg">
<g clip-path="url(#clip0_240_40)">
<path d="M429.939 391.627L413.548 199.124C409.585 157.923 383.55 123.958 348.365 109.686C348.966 99.434 350.538 88.038 353.531 77.109C360.295 52.409 371.237 40.433 388.406 40.985C399.711 41.349 409.17 32.479 409.534 21.174C409.898 9.869 401.028 0.409998 389.723 0.0459976C349.586 -1.245 325.215 25.43 314.026 66.291C310.855 77.869 308.899 90.039 307.884 102.298C307.88 102.345 307.876 102.389 307.872 102.436H307.145V41.006C307.145 29.695 297.976 20.526 286.665 20.526H204.745C193.434 20.526 184.265 29.695 184.265 41.006V100.849C183.694 89.88 182.256 78.384 179.6 67.034C169.964 25.863 146.289 -1.255 105.803 0.0469976C94.4965 0.408998 85.6265 9.868 85.9905 21.173C86.3545 32.478 95.8135 41.348 107.119 40.984C123.939 40.443 134.008 51.977 139.717 76.366C142.265 87.253 143.398 98.827 143.573 109.465C107.912 123.682 81.5785 158.063 77.8525 199.604L61.7665 388.357C56.8095 443.379 98.1755 491.554 151.703 491.554H343.908C396.333 491.554 433.631 446.379 429.939 391.627ZM266.184 61.485V102.435H225.224V61.485H266.184ZM343.908 450.594H151.703C122.855 450.594 99.7135 423.644 102.571 391.934L118.656 203.173C121.705 169.18 148.656 143.394 180.17 143.394H204.542C204.61 143.395 204.676 143.404 204.744 143.404H286.664C286.732 143.404 286.798 143.394 286.866 143.394H311.221C342.582 143.394 369.497 168.949 372.756 202.822L389.099 394.742C391.241 426.559 371.397 450.594 343.908 450.594Z" fill="white"/>
<path d="M276.434 204.836H214.974C186.706 204.836 163.794 227.747 163.794 256.015C163.794 284.298 186.7 307.215 214.974 307.215H276.434C304.707 307.215 327.634 284.299 327.634 256.015C327.634 227.747 304.702 204.836 276.434 204.836ZM276.434 266.256H214.974C209.326 266.256 204.754 261.682 204.754 256.016C204.754 250.369 209.327 245.797 214.974 245.797H276.434C282.089 245.797 286.674 250.378 286.674 256.016C286.674 261.674 282.09 266.256 276.434 266.256Z" fill="white"/>
</g>
<defs>
<clipPath id="clip0_240_40">
<rect width="491.554" height="491.554" fill="white"/>
</clipPath>
</defs>
</svg>
