<svg width="512" height="512" viewBox="0 0 512 512" fill="none" xmlns="http://www.w3.org/2000/svg">
<g clip-path="url(#clip0_240_84)">
<path d="M498.915 156.87C484.965 128.186 460.828 109.714 429.118 103.453C371.245 92.023 342.576 110.461 317.283 126.731C299.093 138.432 283.388 148.536 256.019 148.536C256.007 148.536 255.996 148.536 255.982 148.536C228.623 148.536 212.912 138.43 194.723 126.729C169.433 110.46 140.768 92.015 82.9089 103.452C51.1809 109.715 27.0339 128.194 13.0799 156.893C-5.70414 195.525 -2.47014 247.03 11.5059 274.495C28.2739 307.499 57.2329 337.958 95.2459 362.576C143.828 394.052 202.387 412.1 255.929 412.1C255.952 412.1 255.98 412.1 256.002 412.1C309.569 412.098 368.16 394.05 416.746 362.585C454.779 337.955 483.737 307.504 500.486 274.532C514.472 247.037 517.707 195.508 498.915 156.87ZM470.724 259.406C456.837 286.745 431.223 313.437 398.599 334.563C355.271 362.622 303.294 378.714 255.995 378.714H255.989C255.966 378.714 255.948 378.714 255.924 378.714C208.658 378.714 156.711 362.621 113.393 334.556C80.7849 313.438 55.1709 286.738 41.2639 259.364C32.7169 242.57 28.4559 201.615 43.1019 171.493C52.4369 152.297 68.0029 140.425 89.3759 136.206C99.5849 134.188 108.486 133.297 116.428 133.297C143.219 133.297 159.015 143.455 176.66 154.808C196.417 167.518 218.808 181.924 255.975 181.923C255.987 181.922 256.005 181.923 256.023 181.923C293.194 181.923 315.587 167.519 335.343 154.81C358.22 140.092 377.98 127.382 422.647 136.207C444.001 140.424 459.558 152.289 468.889 171.473C483.545 201.601 479.28 242.586 470.724 259.406Z" fill="white"/>
<path d="M302.428 214.517C265.857 230.648 243.048 222.357 230.353 212.563L209.956 238.994C225.459 250.957 243.868 256.971 264.028 256.971C280.377 256.971 297.879 253.013 315.901 245.063L302.428 214.517Z" fill="white"/>
</g>
<defs>
<clipPath id="clip0_240_84">
<rect width="512" height="512" fill="white"/>
</clipPath>
</defs>
</svg>
