<svg width="26" height="18" viewBox="0 0 26 18" fill="none" xmlns="http://www.w3.org/2000/svg">
<path d="M25.3975 0.554001H23.3555L13.3815 13.198C13.2805 13.322 13.1255 13.395 12.9655 13.395C12.8015 13.395 12.6505 13.322 12.5465 13.198L2.57547 0.554001H0.532472C0.326472 0.554001 0.140472 0.669001 0.053472 0.853001C-0.036528 1.037 -0.010528 1.256 0.113472 1.414L12.5485 17.176C12.6525 17.301 12.8035 17.376 12.9675 17.376C13.1275 17.376 13.2825 17.301 13.3835 17.176L25.8165 1.413C25.9445 1.256 25.9645 1.036 25.8745 0.852001C25.7895 0.669001 25.6015 0.554001 25.3975 0.554001Z" fill="white"/>
</svg>
