<svg width="114" height="69" viewBox="0 0 114 69" fill="none" xmlns="http://www.w3.org/2000/svg">
<path d="M4.992 1.27999C5.632 1.27999 6.272 1.43999 6.912 1.75999C9.984 1.18399 13.12 0.895994 16.32 0.895994C19.328 0.959997 22.208 1.472 24.96 2.432C27.776 3.328 30.24 4.672 32.352 6.464C34.528 8.192 36.224 10.336 37.44 12.896C38.72 15.392 39.36 18.272 39.36 21.536C39.296 25.568 38.432 29.216 36.768 32.48C35.168 35.744 32.992 38.592 30.24 41.024C27.552 43.392 24.448 45.312 20.928 46.784C17.472 48.192 13.888 49.056 10.176 49.376C10.176 50.336 10.176 51.456 10.176 52.736C10.24 53.952 10.272 55.2 10.272 56.48C10.336 57.76 10.336 59.04 10.272 60.32C10.272 61.536 10.24 62.624 10.176 63.584C10.048 64.864 9.504 65.952 8.544 66.848C7.584 67.68 6.464 68.096 5.184 68.096C3.84 68.096 2.688 67.616 1.728 66.656C0.832 65.632 0.384 64.448 0.384 63.104C0.448 60.352 0.48 57.728 0.48 55.232C0.48 52.736 0.48 50.24 0.48 47.744C0.48 45.248 0.48 42.752 0.48 40.256C0.48 37.76 0.48 35.136 0.48 32.384C0.48 29.824 0.48 27.488 0.48 25.376C0.48 23.264 0.448 21.216 0.384 19.232C0.384 17.248 0.352 15.2 0.288 13.088C0.224 10.976 0.128 8.64 0 6.08C0 4.736 0.48 3.616 1.44 2.72C2.464 1.76 3.648 1.27999 4.992 1.27999ZM10.08 11.168C10.4 14.752 10.56 18.304 10.56 21.824C10.624 25.344 10.624 28.896 10.56 32.48C10.56 33.056 10.56 33.76 10.56 34.592C10.56 35.424 10.592 36.192 10.656 36.896C10.656 37.728 10.656 38.592 10.656 39.488C13.024 39.168 15.328 38.56 17.568 37.664C19.808 36.704 21.824 35.456 23.616 33.92C25.408 32.384 26.848 30.592 27.936 28.544C29.024 26.432 29.568 24.096 29.568 21.536C29.568 19.68 29.184 18.08 28.416 16.736C27.648 15.328 26.624 14.208 25.344 13.376C24.128 12.48 22.72 11.808 21.12 11.36C19.52 10.912 17.888 10.688 16.224 10.688C15.2 10.688 14.176 10.752 13.152 10.88C12.192 10.944 11.168 11.04 10.08 11.168ZM41.3483 39.008L41.9243 29.984C42.0523 28.32 42.6283 27.2 43.6523 26.624C44.7403 26.048 45.8923 25.76 47.1083 25.76C48.3243 25.76 49.3483 26.208 50.1803 27.104C51.0763 28 51.5243 29.056 51.5243 30.272C51.5243 33.024 51.3963 35.488 51.1403 37.664C50.8843 39.776 50.7563 42.208 50.7563 44.96C50.7563 45.536 50.7883 46.592 50.8523 48.128C50.9163 49.664 51.0763 51.264 51.3323 52.928C51.5883 54.528 51.9723 55.968 52.4843 57.248C52.9963 58.464 53.7003 59.072 54.5963 59.072C55.9403 59.072 57.0923 58.304 58.0523 56.768C59.0123 55.168 59.8123 53.344 60.4523 51.296C61.1563 49.184 61.7003 47.104 62.0843 45.056C62.5323 42.944 62.8523 41.344 63.0443 40.256C63.2363 39.36 63.3323 38.144 63.3323 36.608C63.3963 35.008 63.5563 33.44 63.8123 31.904C64.1323 30.304 64.6123 28.896 65.2523 27.68C65.8923 26.464 66.9163 25.824 68.3243 25.76C70.1803 25.632 71.5243 26.048 72.3563 27.008C73.2523 27.968 73.8603 29.344 74.1803 31.136C74.5643 32.928 74.7243 35.072 74.6603 37.568C74.6603 40.064 74.6603 42.784 74.6603 45.728L74.3723 63.68C74.3723 64.96 73.9563 66.048 73.1243 66.944C72.2923 67.776 71.2363 68.192 69.9563 68.192C68.7403 68.192 67.8123 67.904 67.1723 67.328C66.5963 66.752 66.1803 66.048 65.9243 65.216C65.7323 64.32 65.6363 63.36 65.6363 62.336C65.6363 61.248 65.6363 60.256 65.6363 59.36C64.6763 61.92 63.2043 64 61.2203 65.6C59.3003 67.2 56.8683 68 53.9243 68C50.7883 68 48.3563 67.2 46.6283 65.6C44.9003 64 43.6203 62.016 42.7883 59.648C42.0203 57.28 41.5403 54.784 41.3483 52.16C41.2203 49.472 41.1562 47.072 41.1562 44.96C41.1562 43.68 41.1562 42.688 41.1562 41.984C41.1562 41.28 41.2203 40.288 41.3483 39.008ZM79.5 28.256C79.5 23.584 80.332 20.192 81.996 18.08C83.66 15.968 86.476 14.72 90.444 14.336C91.468 14.208 92.556 14.24 93.708 14.432C94.924 14.56 96.076 14.88 97.164 15.392C98.252 15.84 99.212 16.48 100.044 17.312C100.876 18.08 101.484 19.072 101.868 20.288C102.316 21.824 102.06 22.976 101.1 23.744C100.204 24.448 99.148 24.8 97.932 24.8C97.1 24.8 96.396 24.672 95.82 24.416C95.18 24.224 94.604 24.064 94.092 23.936C93.58 23.808 93.132 23.744 92.748 23.744C91.276 23.744 90.316 24.32 89.868 25.472C89.42 26.624 89.196 28.128 89.196 29.984C89.196 31.392 89.196 32.576 89.196 33.536C89.26 34.496 89.292 35.68 89.292 37.088C90.188 37.152 91.18 37.152 92.268 37.088C93.356 37.024 94.348 37.088 95.244 37.28C96.204 37.408 96.972 37.76 97.548 38.336C98.188 38.912 98.508 39.872 98.508 41.216C98.508 42.688 98.188 43.808 97.548 44.576C96.972 45.28 96.236 45.76 95.34 46.016C94.444 46.272 93.452 46.368 92.364 46.304C91.276 46.24 90.252 46.176 89.292 46.112V52.064C89.292 53.024 89.356 54.4 89.484 56.192C89.612 57.92 89.612 59.648 89.484 61.376C89.356 63.104 88.94 64.608 88.236 65.888C87.596 67.168 86.444 67.808 84.78 67.808C83.564 67.808 82.476 67.36 81.516 66.464C80.556 65.504 80.076 64.384 80.076 63.104C80.012 60.416 79.948 57.6 79.884 54.656C79.82 51.712 79.756 48.736 79.692 45.728C79.628 42.72 79.564 39.744 79.5 36.8C79.5 33.792 79.5 30.944 79.5 28.256ZM104.156 57.44C104.156 52.96 104.188 48.448 104.252 43.904C104.316 39.296 104.316 34.752 104.252 30.272C104.252 29.056 104.668 28 105.5 27.104C106.396 26.208 107.484 25.76 108.764 25.76C110.3 25.76 111.42 26.272 112.124 27.296C112.828 28.32 113.276 29.568 113.468 31.04C113.66 32.448 113.692 33.92 113.564 35.456C113.5 36.992 113.468 38.272 113.468 39.296C113.468 42.112 113.436 44.96 113.372 47.84C113.308 50.72 113.276 53.536 113.276 56.288C113.276 57.248 113.308 58.4 113.372 59.744C113.5 61.088 113.468 62.4 113.276 63.68C113.084 64.896 112.668 65.952 112.028 66.848C111.388 67.68 110.3 68.096 108.764 68.096C107.356 68.096 106.332 67.712 105.692 66.944C105.052 66.176 104.604 65.248 104.348 64.16C104.156 63.008 104.092 61.824 104.156 60.608C104.156 59.392 104.156 58.336 104.156 57.44ZM108.86 11.168C110.14 11.168 111.196 11.616 112.028 12.512C112.924 13.408 113.372 14.464 113.372 15.68C113.372 16.96 112.924 18.048 112.028 18.944C111.196 19.776 110.14 20.192 108.86 20.192C107.58 20.192 106.492 19.776 105.596 18.944C104.764 18.048 104.348 16.96 104.348 15.68C104.348 14.464 104.764 13.408 105.596 12.512C106.492 11.616 107.58 11.168 108.86 11.168Z" fill="white"/>
</svg>
