<svg width="321" height="396" viewBox="0 0 321 396" fill="none" xmlns="http://www.w3.org/2000/svg">
<path d="M320.507 380.982L300.914 82.223C300.483 75.651 295.027 70.541 288.441 70.541H233.751V62.5C233.751 28.038 205.713 0 171.251 0H149.756C115.294 0 87.2558 28.038 87.2558 62.5V70.541H32.5658C25.9798 70.541 20.5238 75.651 20.0928 82.223L0.449833 381.709C0.222833 385.158 1.43583 388.547 3.79983 391.07C6.16383 393.595 9.46583 395.025 12.9238 395.025H308.083C308.09 395.025 308.096 395.025 308.103 395.025C315.006 395.025 320.603 389.429 320.603 382.525C320.601 382.004 320.57 381.488 320.507 380.982ZM112.255 62.5C112.255 41.822 129.077 25 149.755 25H171.25C191.928 25 208.75 41.822 208.75 62.5V70.541H112.255V62.5ZM26.2698 370.025L44.2718 95.542H87.2548V106.696C78.3598 111.256 72.2548 120.514 72.2548 131.178C72.2548 146.342 84.5908 158.678 99.7548 158.678C114.919 158.678 127.255 146.342 127.255 131.178C127.255 120.514 121.15 111.256 112.255 106.696V95.542H208.75V106.696C199.854 111.256 193.75 120.514 193.75 131.178C193.75 146.342 206.086 158.678 221.25 158.678C236.414 158.678 248.75 146.342 248.75 131.178C248.75 120.514 242.645 111.256 233.75 106.696V95.542H276.733L294.735 370.025H26.2698Z" fill="white"/>
</svg>
